<svg width="1232" height="241" viewBox="0 0 1232 241" fill="none" xmlns="http://www.w3.org/2000/svg">
<g filter="url(#filter0_d_102_70)">
<path d="M121.255 203.671L16.5822 206.115L4 27.1562L122.059 23.3543L121.255 41.549L64.7694 48.338L57.809 104.551L114.83 104.008L116.169 128.449L55.6674 123.832L48.4393 184.39L122.326 175.7L121.255 203.671Z" fill="#606060"/>
<path d="M149.222 203.671L190.181 140.669L151.899 73.3217L209.189 65.1748L226.857 114.328L250.951 65.1748L275.312 71.1492L234.353 134.152L277.721 203.671L220.432 209.646L198.213 159.135L173.584 209.646L149.222 203.671Z" fill="#606060"/>
<path d="M346.533 186.563C363.666 186.563 379.817 183.576 394.987 177.601L403.019 203.943C390.526 208.107 377.408 210.189 363.666 210.189C349.923 210.189 337.787 208.65 327.258 205.572C316.728 202.676 308.697 198.874 303.164 194.167C300.487 181.132 299.148 169.002 299.148 157.777C299.148 135.147 304.146 114.599 314.14 96.1329C324.313 77.6667 336.003 64.7222 349.21 57.2995L395.523 87.986C373.035 100.297 355.367 114.961 342.517 131.979C329.667 148.816 323.242 166.467 323.242 184.934C330.738 186.02 338.501 186.563 346.533 186.563Z" fill="#606060"/>
<path d="M503.398 171.899C510.001 163.209 514.552 153.794 517.051 143.656C519.55 133.518 520.799 124.737 520.799 117.315C520.799 109.711 519.728 95.0466 517.586 73.3217L574.876 64.3601L557.742 205.301L531.24 207.745L525.885 156.148H524.011C510.805 191.994 489.745 209.917 460.833 209.917C456.549 209.917 452.98 209.193 450.124 207.745C441.022 196.52 434.776 177.511 431.385 150.717C427.994 123.742 426.299 96.857 426.299 70.063L479.84 65.9895C476.627 97.6717 475.021 121.388 475.021 137.139C475.021 152.889 476.36 169.817 479.037 187.921C488.853 185.748 496.973 180.408 503.398 171.899Z" fill="#606060"/>
<path d="M696.262 114.328C684.126 114.328 674.934 118.672 668.688 127.362C662.441 135.871 657.89 151.622 655.035 174.614L651.287 205.301L624.784 207.745L611.131 73.0501L668.42 64.0886L663.066 107.538H664.94C679.218 76.3994 697.422 59.8341 719.552 57.8427L712.056 115.685C705.453 114.78 700.188 114.328 696.262 114.328Z" fill="#606060"/>
<path d="M735.541 114.328C735.541 91.1542 747.588 69.9724 771.682 50.7821L815.586 80.6539C795.775 93.5078 785.87 106.995 785.87 121.117C785.87 128.539 789.886 138.225 797.917 150.174C806.127 162.122 810.231 171.446 810.231 178.145C810.231 201.861 794.169 220.146 762.044 233L750.265 216.978C764.364 209.193 771.414 200.594 771.414 191.179C771.414 182.308 765.435 171.084 753.478 157.506C749.016 152.437 744.911 146.01 741.163 138.225C737.415 130.44 735.541 122.474 735.541 114.328Z" fill="#606060"/>
<path d="M864.026 207.745L850.373 73.3217L907.662 64.3601L890.529 205.301L864.026 207.745ZM858.672 43.1783C853.853 38.1092 851.444 32.1348 851.444 25.2553C851.444 18.3757 853.853 12.4918 858.672 7.60373C863.669 2.53458 869.558 0 876.34 0C883.122 0 888.923 2.53458 893.741 7.60373C898.738 12.4918 901.237 18.3757 901.237 25.2553C901.237 32.1348 898.738 38.1092 893.741 43.1783C888.923 48.0664 883.122 50.5105 876.34 50.5105C869.558 50.5105 863.669 48.0664 858.672 43.1783Z" fill="#606060"/>
<path d="M1056.91 153.704C1056.91 173.437 1052.63 187.83 1044.06 196.882C1035.67 205.753 1020.06 210.189 997.214 210.189C974.37 210.189 956.523 204.939 943.673 194.438C940.996 181.403 939.657 168.368 939.657 155.333C939.657 142.298 941.442 130.078 945.011 118.673C948.759 107.086 953.399 97.2191 958.932 89.0723C970.533 72.4165 980.884 61.8256 989.986 57.2995C1007.12 66.1706 1022.2 78.2098 1035.23 93.4173C1049.68 110.073 1056.91 130.169 1056.91 153.704ZM1025.86 146.372C1025.86 129.173 1022.29 113.422 1015.15 99.1201C1000.34 107.086 988.112 119.216 978.474 135.509C968.837 151.803 964.018 168.278 964.018 184.934C969.729 186.02 977.939 186.563 988.647 186.563C999.356 186.563 1010.33 184.662 1021.58 180.86C1024.43 169.817 1025.86 158.321 1025.86 146.372Z" fill="#606060"/>
<path d="M1194.27 61.6445C1197.66 61.6445 1200.96 62.1877 1204.17 63.2739C1213.28 74.4985 1219.52 93.9604 1222.91 121.66C1226.3 149.178 1228 176.515 1228 203.671L1179.81 207.745C1179.81 166.105 1178.3 128.177 1175.26 93.9604C1151.53 102.831 1135.73 139.945 1127.88 205.301L1101.37 207.745L1087.72 73.0501L1145.01 64.0886L1139.12 111.883H1141.53C1148.67 96.1329 1156.79 83.8221 1165.89 74.9511C1174.99 66.08 1184.45 61.6445 1194.27 61.6445Z" fill="#606060"/>
</g>
<defs>
<filter id="filter0_d_102_70" x="0" y="0" width="1232" height="241" filterUnits="userSpaceOnUse" color-interpolation-filters="sRGB">
<feFlood flood-opacity="0" result="BackgroundImageFix"/>
<feColorMatrix in="SourceAlpha" type="matrix" values="0 0 0 0 0 0 0 0 0 0 0 0 0 0 0 0 0 0 127 0" result="hardAlpha"/>
<feOffset dy="4"/>
<feGaussianBlur stdDeviation="2"/>
<feComposite in2="hardAlpha" operator="out"/>
<feColorMatrix type="matrix" values="0 0 0 0 0 0 0 0 0 0 0 0 0 0 0 0 0 0 0.25 0"/>
<feBlend mode="normal" in2="BackgroundImageFix" result="effect1_dropShadow_102_70"/>
<feBlend mode="normal" in="SourceGraphic" in2="effect1_dropShadow_102_70" result="shape"/>
</filter>
</defs>
</svg>
